<svg width="18" height="18" viewBox="0 0 18 18" fill="none" xmlns="http://www.w3.org/2000/svg">
<path d="M5.5 6.5625C5.5 7.82031 6.15625 8.96875 7.25 9.59766C8.31641 10.2266 9.65625 10.2266 10.75 9.59766C11.8164 8.96875 12.5 7.82031 12.5 6.5625C12.5 5.33203 11.8164 4.18359 10.75 3.55469C9.65625 2.92578 8.31641 2.92578 7.25 3.55469C6.15625 4.18359 5.5 5.33203 5.5 6.5625ZM13.8125 6.5625C13.8125 9.24219 11.6523 11.375 9 11.375C6.32031 11.375 4.1875 9.24219 4.1875 6.5625C4.1875 5.96094 4.29688 5.35938 4.51562 4.8125H3.3125V14.4375H14.6875V4.8125H13.4844C13.6758 5.35938 13.8125 5.96094 13.8125 6.5625ZM12.6914 3.5H14.6875H16V4.8125V14.4375V15.75H14.6875H3.3125H2V14.4375V4.8125V3.5H3.3125H5.28125C6.15625 2.43359 7.49609 1.75 9 1.75C10.4766 1.75 11.8164 2.43359 12.6914 3.5ZM10.0938 7.875C10.0938 8.50391 9.60156 8.96875 9 8.96875C8.37109 8.96875 7.90625 8.50391 7.90625 7.875C7.90625 7.27344 8.37109 6.80859 8.97266 6.78125L9.90234 4.64844L10.0664 4.23828L10.8867 4.59375L10.6953 5.00391L9.79297 7.13672C9.95703 7.32812 10.0938 7.60156 10.0938 7.875Z" fill="#00340D"/>
</svg>
