<svg width="18" height="18" viewBox="0 0 18 18" fill="none" xmlns="http://www.w3.org/2000/svg">
<path d="M12.9375 6.5625H5.0625V14C5.0625 14.2461 5.25391 14.4375 5.5 14.4375H12.5C12.7188 14.4375 12.9375 14.2461 12.9375 14V6.5625ZM12.9375 5.25V3.5C12.9375 3.28125 12.7188 3.0625 12.5 3.0625H5.5C5.25391 3.0625 5.0625 3.28125 5.0625 3.5V5.25H12.9375ZM14.25 5.25V5.90625V6.5625V14C14.25 14.9844 13.457 15.75 12.5 15.75H5.5C4.51562 15.75 3.75 14.9844 3.75 14V6.5625V5.90625V5.25V3.5C3.75 2.54297 4.51562 1.75 5.5 1.75H12.5C13.457 1.75 14.25 2.54297 14.25 3.5V5.25ZM5.9375 8.09375C5.9375 7.73828 6.21094 7.4375 6.59375 7.4375C6.94922 7.4375 7.25 7.73828 7.25 8.09375C7.25 8.47656 6.94922 8.75 6.59375 8.75C6.21094 8.75 5.9375 8.47656 5.9375 8.09375ZM6.59375 9.84375C6.94922 9.84375 7.25 10.1445 7.25 10.5C7.25 10.8828 6.94922 11.1562 6.59375 11.1562C6.21094 11.1562 5.9375 10.8828 5.9375 10.5C5.9375 10.1445 6.21094 9.84375 6.59375 9.84375ZM5.9375 12.9062C5.9375 12.5508 6.21094 12.25 6.59375 12.25H9C9.35547 12.25 9.65625 12.5508 9.65625 12.9062C9.65625 13.2891 9.35547 13.5625 9 13.5625H6.59375C6.21094 13.5625 5.9375 13.2891 5.9375 12.9062ZM9 7.4375C9.35547 7.4375 9.65625 7.73828 9.65625 8.09375C9.65625 8.47656 9.35547 8.75 9 8.75C8.61719 8.75 8.34375 8.47656 8.34375 8.09375C8.34375 7.73828 8.61719 7.4375 9 7.4375ZM8.34375 10.5C8.34375 10.1445 8.61719 9.84375 9 9.84375C9.35547 9.84375 9.65625 10.1445 9.65625 10.5C9.65625 10.8828 9.35547 11.1562 9 11.1562C8.61719 11.1562 8.34375 10.8828 8.34375 10.5ZM11.4062 7.4375C11.7617 7.4375 12.0625 7.73828 12.0625 8.09375C12.0625 8.47656 11.7617 8.75 11.4062 8.75C11.0234 8.75 10.75 8.47656 10.75 8.09375C10.75 7.73828 11.0234 7.4375 11.4062 7.4375ZM10.75 10.5C10.75 10.1445 11.0234 9.84375 11.4062 9.84375C11.7617 9.84375 12.0625 10.1445 12.0625 10.5C12.0625 10.8828 11.7617 11.1562 11.4062 11.1562C11.0234 11.1562 10.75 10.8828 10.75 10.5ZM11.4062 12.25C11.7617 12.25 12.0625 12.5508 12.0625 12.9062C12.0625 13.2891 11.7617 13.5625 11.4062 13.5625C11.0234 13.5625 10.75 13.2891 10.75 12.9062C10.75 12.5508 11.0234 12.25 11.4062 12.25Z" fill="#00340D"/>
</svg>
