<svg width="18" height="18" viewBox="0 0 18 18" fill="none" xmlns="http://www.w3.org/2000/svg">
<path d="M11.8711 7.73828L12.0078 7.60156L13.2656 7.82031C13.3203 8.12109 13.375 8.42188 13.375 8.75C13.375 11.1836 11.4062 13.125 9 13.125C6.56641 13.125 4.625 11.1836 4.625 8.75C4.625 6.34375 6.56641 4.375 9 4.375C9.32812 4.375 9.62891 4.42969 9.92969 4.48438L10.1484 5.74219L10.0117 5.87891C9.68359 5.76953 9.35547 5.6875 9 5.6875C7.30469 5.6875 5.9375 7.08203 5.9375 8.75C5.9375 10.4453 7.30469 11.8125 9 11.8125C10.668 11.8125 12.0625 10.4453 12.0625 8.75C12.0625 8.39453 11.9805 8.06641 11.8711 7.73828ZM14.5234 7.51953H14.5508L15.5898 6.45312C15.8633 7.16406 16 7.95703 16 8.75C16 12.6328 12.8555 15.75 9 15.75C5.11719 15.75 2 12.6328 2 8.75C2 4.89453 5.11719 1.75 9 1.75C9.79297 1.75 10.5859 1.88672 11.2969 2.16016L10.2305 3.19922C9.84766 3.11719 9.41016 3.0625 9 3.0625C5.85547 3.0625 3.3125 5.63281 3.3125 8.75C3.3125 11.8945 5.85547 14.4375 8.97266 14.4375C12.1172 14.4375 14.6602 11.8945 14.6602 8.75C14.6602 8.33984 14.6328 7.90234 14.5234 7.51953ZM11.9805 6.69922L9.24609 9.43359L8.31641 8.50391L11.0508 5.76953L10.75 3.9375L12.9375 1.75L13.8125 3.9375L16 4.8125L13.8125 7L11.9805 6.69922Z" fill="#00340D"/>
</svg>
