<svg width="18" height="18" viewBox="0 0 18 18" fill="none" xmlns="http://www.w3.org/2000/svg">
<path d="M5.5 6.5625C5.5 7.82031 6.15625 8.96875 7.25 9.59766C8.31641 10.2266 9.65625 10.2266 10.75 9.59766C11.8164 8.96875 12.5 7.82031 12.5 6.5625C12.5 5.33203 11.8164 4.18359 10.75 3.55469C9.65625 2.92578 8.31641 2.92578 7.25 3.55469C6.15625 4.18359 5.5 5.33203 5.5 6.5625ZM9.65625 11.3477V12.6875H10.9688H11.625V14H10.9688H9.65625V15.0938V15.75H8.34375V15.0938V14H7.03125H6.375V12.6875H7.03125H8.34375V11.3477C5.99219 11.0195 4.1875 9.02344 4.1875 6.5625C4.1875 3.91016 6.32031 1.75 9 1.75C11.6523 1.75 13.8125 3.91016 13.8125 6.5625C13.8125 9.02344 11.9805 11.0195 9.65625 11.3477Z" fill="#00340D"/>
</svg>
