<svg width="18" height="18" viewBox="0 0 18 18" fill="none" xmlns="http://www.w3.org/2000/svg">
<path d="M9.08203 5.03125C8.80859 4.67578 8.26172 4.12891 7.71484 3.60938L7.6875 3.58203C7.27734 3.96484 6.78516 4.51172 6.29297 5.11328C5.71875 5.82422 5.17188 6.58984 4.78906 7.38281C4.37891 8.17578 4.1875 8.91406 4.1875 9.54297C4.1875 12.332 6.29297 14.4375 9 14.4375C11.6523 14.4375 13.8125 12.332 13.8125 9.54297C13.8125 8.39453 13.1016 7.08203 12.1992 5.87891C11.8984 5.46875 11.5977 5.11328 11.3242 4.8125C11.2695 4.86719 11.2148 4.92188 11.1875 4.94922C11.1602 4.97656 11.1328 5.00391 11.1328 5.00391L10.1211 6.34375L9.08203 5.03125ZM2.875 9.54297C2.875 5.90625 7.6875 1.75 7.6875 1.75C7.6875 1.75 8.48047 2.48828 9.19141 3.22656C9.54688 3.58203 9.875 3.9375 10.0938 4.21094C10.2852 3.96484 10.75 3.58203 11.0508 3.30859C11.2422 3.14453 11.4062 3.03516 11.4062 3.03516C11.4062 3.03516 15.125 6.34375 15.125 9.54297C15.125 13.043 12.3906 15.75 9 15.75C5.55469 15.75 2.875 13.043 2.875 9.54297ZM9.02734 13.125C7.30469 13.125 5.9375 12.0312 5.9375 10.1445C5.9375 9.24219 6.51172 8.42188 7.66016 7C7.79688 7.19141 10.0391 10.0352 10.0391 10.0352L11.4062 8.42188C11.543 8.58594 11.5977 8.72266 11.6797 8.88672C12.3906 10.1445 12.0625 11.7578 10.9141 12.5508C10.3398 12.9336 9.73828 13.125 9.02734 13.125Z" fill="#00340D"/>
</svg>
