<svg width="18" height="18" viewBox="0 0 18 18" fill="none" xmlns="http://www.w3.org/2000/svg">
<path d="M3.09375 6.28906L3.58594 1.75H4.89844L4.40625 6.39844V6.78125C4.40625 7.41016 4.87109 7.875 5.5 7.875H5.71875H7.03125H7.25C7.85156 7.875 8.34375 7.41016 8.34375 6.78125V6.39844L7.90625 2.48828L7.82422 1.75H9.13672L9.19141 2.35156L9.62891 6.28906L9.65625 6.31641V6.34375V6.78125C9.65625 8.12109 8.5625 9.1875 7.25 9.1875H7.03125V15.0938V15.75H5.71875V15.0938V9.1875H5.5C4.16016 9.1875 3.09375 8.12109 3.09375 6.78125V6.34375V6.31641V6.28906ZM5.71875 2.40625V1.75H7.03125V2.40625V6.34375V7H5.71875V6.34375V2.40625ZM12.0625 6.5625V10.0625H13.8125V8.53125V7.875V3.28125C13.5938 3.36328 13.4023 3.5 13.1836 3.69141C12.6367 4.15625 12.0625 5.00391 12.0625 6.5625ZM13.8125 11.375H12.0625H10.75V10.0625V6.5625C10.75 3.33594 12.8281 2.16016 13.8125 1.85938C14.0039 1.77734 14.168 1.75 14.25 1.75H15.125V3.0625V7.875V8.53125V10.0625V11.375V15.0938V15.75H13.8125V15.0938V11.375Z" fill="#00340D"/>
</svg>
