<svg width="18" height="18" viewBox="0 0 18 18" fill="none" xmlns="http://www.w3.org/2000/svg">
<path d="M11.4062 2.625H14.4688H15.125V3.28125V6.34375V7H13.8125V6.34375V4.86719L11.5156 7.16406C12.1172 7.98438 12.5 8.99609 12.5 10.0625C12.5 12.7422 10.3398 14.875 7.6875 14.875C5.00781 14.875 2.875 12.7422 2.875 10.0625C2.875 7.41016 5.00781 5.25 7.6875 5.25C8.75391 5.25 9.76562 5.63281 10.5859 6.23438L12.8828 3.9375H11.4062H10.75V2.625H11.4062ZM4.1875 10.0625C4.1875 11.3203 4.84375 12.4688 5.9375 13.0977C7.00391 13.7266 8.34375 13.7266 9.4375 13.0977C10.5039 12.4688 11.1875 11.3203 11.1875 10.0625C11.1875 8.83203 10.5039 7.68359 9.4375 7.05469C8.34375 6.42578 7.00391 6.42578 5.9375 7.05469C4.84375 7.68359 4.1875 8.83203 4.1875 10.0625Z" fill="#00340D"/>
</svg>
