<svg width="18" height="18" viewBox="0 0 18 18" fill="none" xmlns="http://www.w3.org/2000/svg">
<path d="M16 6.125L15.0703 7.05469L7.27734 14.8477L6.375 15.75L5.44531 14.8203L2.90234 12.3047L2 11.375L2.90234 10.4727L10.6953 2.67969L11.625 1.75L12.5273 2.67969L15.0703 5.22266L16 6.125ZM14.1406 6.125L11.625 3.60938L10.668 4.56641L11.4883 5.38672L11.7891 5.6875L11.1875 6.31641L10.8594 6.01562L10.0391 5.19531L8.91797 6.31641L9.73828 7.13672L10.0391 7.4375L9.4375 8.06641L9.10938 7.76562L8.28906 6.94531L7.16797 8.06641L7.98828 8.88672L8.28906 9.1875L7.6875 9.81641L7.35938 9.51562L6.53906 8.69531L5.41797 9.81641L6.23828 10.6367L6.53906 10.9375L5.9375 11.5664L5.60938 11.2656L4.78906 10.4453L3.83203 11.375L6.375 13.918L14.1406 6.125Z" fill="#00340D"/>
</svg>
