<svg width="18" height="18" viewBox="0 0 18 18" fill="none" xmlns="http://www.w3.org/2000/svg">
<path d="M2 15.75L2.27344 14.3555L2.875 11.375L3.39453 10.8555L3.36719 10.8281L3.47656 10.7734L11.5703 2.67969L12.5 1.75L13.4023 2.67969L15.0703 4.32031L16 5.25L15.0703 6.17969L6.97656 14.2734L6.89453 14.3828V14.3555L6.375 14.875L3.39453 15.4766L2 15.75ZM4.07812 12.0312L3.66797 14.082L5.71875 13.6719L5.96484 13.4258L6.18359 13.0977L5.33594 12.9062L4.95312 12.7969L4.84375 12.4141L4.625 11.5664L4.32422 11.7852L4.07812 12.0312ZM12.4453 6.97266L10.8047 5.30469L5.69141 10.418L6.01953 11.7305L7.33203 12.0586L12.4453 6.97266ZM10.6133 7.73828L7.98828 10.3633L7.6875 10.6914L7.05859 10.0625L7.35938 9.76172L9.98438 7.13672L10.3125 6.80859L10.9141 7.4375L10.6133 7.73828Z" fill="#00340D"/>
</svg>
