<svg width="18" height="18" viewBox="0 0 18 18" fill="none" xmlns="http://www.w3.org/2000/svg">
<path d="M11.1875 5.25C11.1875 4.48438 10.75 3.77344 10.0938 3.36328C9.41016 2.98047 8.5625 2.98047 7.90625 3.36328C7.22266 3.77344 6.8125 4.48438 6.8125 5.25C6.8125 6.04297 7.22266 6.75391 7.90625 7.16406C8.5625 7.54688 9.41016 7.54688 10.0938 7.16406C10.75 6.75391 11.1875 6.04297 11.1875 5.25ZM5.5 5.25C5.5 4.01953 6.15625 2.87109 7.25 2.24219C8.31641 1.61328 9.65625 1.61328 10.75 2.24219C11.8164 2.87109 12.5 4.01953 12.5 5.25C12.5 6.50781 11.8164 7.65625 10.75 8.28516C9.65625 8.91406 8.31641 8.91406 7.25 8.28516C6.15625 7.65625 5.5 6.50781 5.5 5.25ZM4.65234 14.4375H13.3477L12.3906 11.375H5.58203L4.65234 14.4375ZM4.625 10.0625H13.375L14.7148 14.4375L15.125 15.75H13.7305H4.24219H2.875L3.25781 14.4375L4.625 10.0625Z" fill="#00340D"/>
</svg>
