<svg width="18" height="18" viewBox="0 0 18 18" fill="none" xmlns="http://www.w3.org/2000/svg">
<path d="M10.3125 1.75C10.7773 1.75 11.1875 2.02344 11.4336 2.40625C11.6797 2.81641 11.6797 3.33594 11.4336 3.71875C11.1875 4.12891 10.7773 4.375 10.3125 4.375C9.82031 4.375 9.41016 4.12891 9.16406 3.71875C8.91797 3.33594 8.91797 2.81641 9.16406 2.40625C9.41016 2.02344 9.82031 1.75 10.3125 1.75ZM7.85156 6.78125L6.86719 7.27344L6.32031 8.58594L6.04688 9.1875L4.84375 8.66797L5.11719 8.06641L5.77344 6.53516L5.85547 6.31641L6.07422 6.20703L8.26172 5.11328L8.48047 5.00391L8.72656 5.05859L11.1328 5.71484L11.4883 5.82422L11.5977 6.17969L12.1992 8.42188L13.1836 9.37891L12.2539 10.3086L11.1602 9.21484L11.0234 9.10547L10.9688 8.94141L10.8047 8.28516L10.0938 10.5547L11.5977 11.7578L11.7617 11.8945L11.8164 12.1133L12.4727 14.7383L12.6367 15.3672L11.3516 15.6953L11.1875 15.0391L10.5859 12.6328L7.74219 10.3086C7.25 9.89844 7.03125 9.24219 7.25 8.64062L7.85156 6.78125ZM9.30078 6.58984L8.48047 9.05078C8.45312 9.13281 8.48047 9.24219 8.5625 9.29688L9 9.65234L9.90234 6.80859C9.90234 6.78125 9.90234 6.78125 9.92969 6.75391L9.30078 6.58984ZM7.33203 11.1289L8.39844 11.9766L7.85156 13.3711L7.79688 13.5078L7.71484 13.5898L6.04688 15.2578L5.58203 15.7227L4.65234 14.793L5.11719 14.3281L6.67578 12.7695L7.33203 11.1289Z" fill="#00340D"/>
</svg>
